<svg id="Layer_1" data-name="Layer 1" xmlns="http://www.w3.org/2000/svg" viewBox="0 0 2272 1872"><defs><style>.cls-1{fill:#c1e9f1;}.cls-2{fill:#47e1b9;}.cls-3{fill:#76e8cb;}.cls-4{fill:#06d6a0;}.cls-5{fill:#9eefda;}.cls-6{fill:#26dbac;}.cls-7{fill:#f0fafc;}.cls-8{fill:#d1cdca;}.cls-9{fill:#5b74da;}.cls-10{fill:#657ddc;}.cls-11{fill:#405ed4;}.cls-12{fill:#8b9ee5;}.cls-13{fill:#3454d1;}.cls-14{fill:#28b5cf;}.cls-15{fill:#46bfd6;}.cls-16{fill:#08aac8;}.cls-17{fill:#6cccde;}.cls-18{fill:#05a9c7;}.cls-19{fill:#e9f7fa;}.cls-20{fill:#b9e7ef;}.cls-21{fill:#8fd8e6;}.cls-22{fill:#a3dfea;}.cls-23{fill:#71cedf;}.cls-24{fill:#50c3d8;}.cls-25{fill:#aae2ec;}.cls-26{fill:#7b90e1;}.cls-27{fill:#9eade9;}.cls-28{fill:#677fdd;}.cls-29{fill:#617adb;}.cls-30{fill:#9cabe8;}.cls-31{fill:#5de4c1;}.cls-32{fill:#8aecd2;}.cls-33{fill:#b7f3e3;}.cls-34{fill:#4ce1bb;}.cls-35{fill:#80eacf;}.cls-36{fill:#2eddaf;}.cls-37{fill:#15d8a6;}.cls-38{fill:#b4e5ee;}.cls-39{fill:#95a6e7;}.cls-40{fill:#5771d9;}.cls-41{fill:#a8b5eb;}.cls-42{fill:#91a3e6;}.cls-43{fill:#758be0;}.cls-44{fill:#cad3f3;}.cls-45{fill:#6fe7c8;}.cls-46{fill:#a8f1de;}.cls-47{fill:#bee9f0;}</style></defs><title>Artboard 1</title><g id="Stack_of_Books_Clipart" data-name="Stack of Books Clipart"><ellipse class="cls-1" cx="1111.5" cy="1592.2" rx="843.1" ry="32.8"/><path class="cls-2" d="M1488.6,1018.6H1013.8a14.72,14.72,0,0,1-14.7-14.7V863.2a14.72,14.72,0,0,1,14.7-14.7h474.8a35.76,35.76,0,0,1,35.8,35.8v98.6A35.74,35.74,0,0,1,1488.6,1018.6Z"/><path class="cls-3" d="M1524.1,879.5c-2.1-17.5-15.4-31.1-31.5-31.1H999.1v31.1Z"/><path class="cls-4" d="M1524.1,987.5c-2.1,17.5-15.4,31.1-31.5,31.1H999.1V987.5Z"/><path class="cls-5" d="M1222.9,848.4H1165a35.76,35.76,0,0,1,35.8,35.8v98.6a35.76,35.76,0,0,1-35.8,35.8h57.9a35.76,35.76,0,0,0,35.8-35.8V884.2A35.83,35.83,0,0,0,1222.9,848.4Z"/><path class="cls-5" d="M1312.8,848.4h-57.9a35.76,35.76,0,0,1,35.8,35.8v98.6a35.76,35.76,0,0,1-35.8,35.8h57.9a35.76,35.76,0,0,0,35.8-35.8V884.2A36,36,0,0,0,1312.8,848.4Z"/><path class="cls-6" d="M1040.2,848.4H799v22.8h11.9V995.7H799v22.8h241.2a73.06,73.06,0,0,0,73.1-73.1v-24A73.11,73.11,0,0,0,1040.2,848.4Z"/><path class="cls-7" d="M1037.4,871.3H810.8V995.8h226.6a50.81,50.81,0,0,0,50.8-50.8V922A50.79,50.79,0,0,0,1037.4,871.3Z"/><rect class="cls-8" x="810.8" y="883.4" width="245.6" height="4"/><rect class="cls-8" x="810.8" y="908.7" width="245.6" height="4"/><rect class="cls-8" x="810.8" y="932.1" width="245.6" height="4"/><rect class="cls-8" x="810.8" y="957.4" width="245.6" height="4"/><rect class="cls-8" x="810.8" y="979.6" width="245.6" height="4"/><path class="cls-9" d="M334.6,1542.3l71.1-469.4a14.65,14.65,0,0,1,16.8-12.3l139.1,21.1a14.65,14.65,0,0,1,12.3,16.8l-71.1,469.4a35.77,35.77,0,0,1-40.7,30l-97.5-14.8A35.87,35.87,0,0,1,334.6,1542.3Z"/><path class="cls-10" d="M466.8,1598.2c17.7.6,33-10.5,35.5-26.5l73.9-487.9-30.7-4.7Z"/><path class="cls-11" d="M360,1582c-17-4.7-28.4-19.8-26-35.8l73.9-487.9,30.7,4.7Z"/><path class="cls-12" d="M542.6,1305.1l8.7-57.2a35.77,35.77,0,0,1-40.7,30l-97.5-14.8a35.77,35.77,0,0,1-30-40.7l-8.7,57.2a35.72,35.72,0,0,0,30,40.7l97.5,14.8A35.72,35.72,0,0,0,542.6,1305.1Z"/><path class="cls-12" d="M529.2,1393.9l8.7-57.2a35.77,35.77,0,0,1-40.7,30l-97.5-14.8a35.77,35.77,0,0,1-30-40.7l-8.7,57.2a35.72,35.72,0,0,0,30,40.7l97.5,14.8A35.77,35.77,0,0,0,529.2,1393.9Z"/><path class="cls-13" d="M570,1124.4l36.1-238.5-22.6-3.4-1.8,11.7L458.6,875.6l1.8-11.7-22.6-3.4L401.7,1099a73.09,73.09,0,0,0,61.3,83.2l23.7,3.6A73.18,73.18,0,0,0,570,1124.4Z"/><path class="cls-7" d="M547.8,1118.2l33.9-224L458.6,875.6l-33.9,224a50.8,50.8,0,0,0,42.6,57.8l22.7,3.4A50.68,50.68,0,0,0,547.8,1118.2Z"/><rect class="cls-8" x="426.52" y="1011.49" width="245.6" height="4" transform="matrix(0.15, -0.99, 0.99, 0.15, -535.03, 1404.79)"/><rect class="cls-8" x="401.51" y="1007.72" width="245.6" height="4" transform="matrix(0.15, -0.99, 0.99, 0.15, -552.55, 1376.85)"/><rect class="cls-8" x="378.39" y="1004.29" width="245.6" height="4" transform="matrix(0.15, -0.99, 0.99, 0.15, -568.83, 1351.07)"/><rect class="cls-8" x="353.4" y="1000.42" width="245.6" height="4" transform="matrix(0.15, -0.99, 0.99, 0.15, -586.24, 1323.07)"/><rect class="cls-8" x="331.46" y="997.14" width="245.6" height="4" transform="matrix(0.15, -0.99, 0.99, 0.15, -601.65, 1298.6)"/><path class="cls-14" d="M860.7,1205.4h526.1a14.72,14.72,0,0,0,14.7-14.7V1033.4a14.72,14.72,0,0,0-14.7-14.7H860.7a35.76,35.76,0,0,0-35.8,35.8v115.2A35.81,35.81,0,0,0,860.7,1205.4Z"/><path class="cls-15" d="M825.3,1052.7c2.3-19.3,16.9-34.1,34.6-34.1h541.7v34.1Z"/><path class="cls-16" d="M825.3,1171.3c2.3,19.3,16.9,34.1,34.6,34.1h541.7v-34.1Z"/><path class="cls-17" d="M913.5,1018.6h18.7a39.31,39.31,0,0,0-39.3,39.3v108.2a39.31,39.31,0,0,0,39.3,39.3H913.5a39.31,39.31,0,0,1-39.3-39.3V1057.9A39.31,39.31,0,0,1,913.5,1018.6Z"/><path class="cls-17" d="M964.2,1018.6h18.7a39.31,39.31,0,0,0-39.3,39.3v108.2a39.31,39.31,0,0,0,39.3,39.3H964.2a39.31,39.31,0,0,1-39.3-39.3V1057.9A39.31,39.31,0,0,1,964.2,1018.6Z"/><path class="cls-17" d="M1201,1018.6h18.7a39.31,39.31,0,0,0-39.3,39.3v108.2a39.31,39.31,0,0,0,39.3,39.3H1201a39.31,39.31,0,0,1-39.3-39.3V1057.9A39.31,39.31,0,0,1,1201,1018.6Z"/><path class="cls-17" d="M1251.7,1018.6h18.7a39.31,39.31,0,0,0-39.3,39.3v108.2a39.31,39.31,0,0,0,39.3,39.3h-18.7a39.31,39.31,0,0,1-39.3-39.3V1057.9A39.31,39.31,0,0,1,1251.7,1018.6Z"/><path class="cls-18" d="M1356.4,1018.6h264.8v25.1h-13v136.6h13v25.1H1356.4a80.19,80.19,0,0,1-80.2-80.2v-26.3A80.15,80.15,0,0,1,1356.4,1018.6Z"/><path class="cls-19" d="M1359.5,1043.7h248.7v136.6H1359.5a55.65,55.65,0,0,1-55.7-55.7v-25.2A55.59,55.59,0,0,1,1359.5,1043.7Z"/><rect class="cls-20" x="1338.6" y="1057" width="269.6" height="4.4"/><rect class="cls-20" x="1338.6" y="1084.8" width="269.6" height="4.4"/><rect class="cls-20" x="1338.6" y="1110.4" width="269.6" height="4.4"/><rect class="cls-20" x="1338.6" y="1138.2" width="269.6" height="4.4"/><rect class="cls-20" x="1338.6" y="1162.6" width="269.6" height="4.4"/><path class="cls-21" d="M1536.3,697.2H1045.8a14.72,14.72,0,0,1-14.7-14.7V541.8a14.72,14.72,0,0,1,14.7-14.7h490.5a20.1,20.1,0,0,1,20.1,20.1V677.1A20.1,20.1,0,0,1,1536.3,697.2Z"/><path class="cls-22" d="M1035.4,531.4V564h521.1V547.1a20.1,20.1,0,0,0-20.1-20.1H1045.9A15.06,15.06,0,0,0,1035.4,531.4Z"/><path class="cls-23" d="M1035.4,692.8V660.2h521.1v16.9a20.1,20.1,0,0,1-20.1,20.1H1045.9A14.64,14.64,0,0,1,1035.4,692.8Z"/><path class="cls-24" d="M1123.1,527.1H831v22.8h11.9V674.4H831v22.8h292.1a22.15,22.15,0,0,0,22.2-22.2V549.3A22.09,22.09,0,0,0,1123.1,527.1Z"/><path class="cls-7" d="M1107,549.9H842.9V674.4H1107a13.19,13.19,0,0,0,13.2-13.2V563.1A13.19,13.19,0,0,0,1107,549.9Z"/><rect class="cls-8" x="842.9" y="562.1" width="245.6" height="4"/><rect class="cls-8" x="842.9" y="587.3" width="245.6" height="4"/><rect class="cls-8" x="842.9" y="610.7" width="245.6" height="4"/><rect class="cls-8" x="842.9" y="636" width="245.6" height="4"/><rect class="cls-8" x="842.9" y="658.2" width="245.6" height="4"/><path class="cls-25" d="M1478.1,635.5H1307.3a13.61,13.61,0,0,1-13.6-13.6V599.6a13.61,13.61,0,0,1,13.6-13.6h170.8a13.61,13.61,0,0,1,13.6,13.6v22.3A13.61,13.61,0,0,1,1478.1,635.5Z"/><path class="cls-25" d="M1234.2,635.5h-22.3a13.61,13.61,0,0,1-13.6-13.6V599.6a13.61,13.61,0,0,1,13.6-13.6h22.3a13.61,13.61,0,0,1,13.6,13.6v22.3A13.61,13.61,0,0,1,1234.2,635.5Z"/><path class="cls-26" d="M1639.4,1595.2h-556a16.73,16.73,0,0,1-16.7-16.7V1419a16.73,16.73,0,0,1,16.7-16.7h556a22.79,22.79,0,0,1,22.8,22.8v147.3A22.85,22.85,0,0,1,1639.4,1595.2Z"/><path class="cls-27" d="M1071.5,1407.2v37h590.7V1425a22.79,22.79,0,0,0-22.8-22.8h-556A16.79,16.79,0,0,0,1071.5,1407.2Z"/><path class="cls-28" d="M1071.5,1590.2v-37h590.7v19.2a22.79,22.79,0,0,1-22.8,22.8h-556A17.22,17.22,0,0,1,1071.5,1590.2Z"/><path class="cls-29" d="M1171,1402.2H839.9v25.9h13.4v141.1H839.9v25.9H1171a25.22,25.22,0,0,0,25.2-25.2V1427.4A25.22,25.22,0,0,0,1171,1402.2Z"/><path class="cls-7" d="M1152.7,1428.1H853.3v141.1h299.4a15,15,0,0,0,15-15V1443A15,15,0,0,0,1152.7,1428.1Z"/><rect class="cls-8" x="853.3" y="1441.9" width="278.4" height="4.6"/><rect class="cls-8" x="853.3" y="1470.6" width="278.4" height="4.6"/><rect class="cls-8" x="853.3" y="1497.1" width="278.4" height="4.6"/><rect class="cls-8" x="853.3" y="1525.7" width="278.4" height="4.6"/><rect class="cls-8" x="853.3" y="1550.9" width="278.4" height="4.6"/><path class="cls-30" d="M1573.5,1525.1H1379.9a15.41,15.41,0,0,1-15.4-15.4v-25.3a15.41,15.41,0,0,1,15.4-15.4h193.6a15.41,15.41,0,0,1,15.4,15.4v25.3A15.41,15.41,0,0,1,1573.5,1525.1Z"/><path class="cls-30" d="M1296.9,1525.1h-25.3a15.41,15.41,0,0,1-15.4-15.4v-25.3a15.41,15.41,0,0,1,15.4-15.4h25.3a15.41,15.41,0,0,1,15.4,15.4v25.3A15.41,15.41,0,0,1,1296.9,1525.1Z"/><path class="cls-31" d="M1549.4,848.4h-432a14.72,14.72,0,0,1-14.7-14.7V711.9a14.72,14.72,0,0,1,14.7-14.7h432a20.1,20.1,0,0,1,20.1,20.1v111A20.1,20.1,0,0,1,1549.4,848.4Z"/><path class="cls-32" d="M1106.5,701.1v29h463v-15a17.88,17.88,0,0,0-17.9-17.9H1115.8A13.16,13.16,0,0,0,1106.5,701.1Z"/><path class="cls-6" d="M1106.5,844.5v-29h463v15a17.88,17.88,0,0,1-17.9,17.9H1115.8A13.16,13.16,0,0,1,1106.5,844.5Z"/><path class="cls-4" d="M1184.5,697.2H924.9v20.3h10.5V828.1H924.9v20.3h259.6a19.67,19.67,0,0,0,19.7-19.7V717A19.76,19.76,0,0,0,1184.5,697.2Z"/><path class="cls-7" d="M1170.2,717.5H935.4V828.1h234.7a11.71,11.71,0,0,0,11.7-11.7V729.2A11.63,11.63,0,0,0,1170.2,717.5Z"/><rect class="cls-8" x="935.4" y="739.5" width="218.2" height="3.6"/><rect class="cls-8" x="935.4" y="765" width="218.2" height="3.6"/><rect class="cls-8" x="935.4" y="787.5" width="218.2" height="3.6"/><rect class="cls-8" x="935.4" y="807.2" width="218.2" height="3.6"/><path class="cls-33" d="M1495.2,793.6H1353a16.77,16.77,0,0,1-16.8-16.8V766.5a16.77,16.77,0,0,1,16.8-16.8h142.2a16.77,16.77,0,0,1,16.8,16.8v10.3A16.84,16.84,0,0,1,1495.2,793.6Z"/><path class="cls-33" d="M1278.4,793.6h-10.3a16.77,16.77,0,0,1-16.8-16.8V766.5a16.77,16.77,0,0,1,16.8-16.8h10.3a16.77,16.77,0,0,1,16.8,16.8v10.3A16.77,16.77,0,0,1,1278.4,793.6Z"/><path class="cls-34" d="M609.3,1570.1V1033a18.31,18.31,0,0,1,18.3-18.3H779a18.31,18.31,0,0,1,18.3,18.3v537.2a25,25,0,0,1-25,25h-138A25,25,0,0,1,609.3,1570.1Z"/><path class="cls-35" d="M792.5,1019.4H756.4v575.8h18.7a22.21,22.21,0,0,0,22.2-22.2V1031A16,16,0,0,0,792.5,1019.4Z"/><path class="cls-36" d="M614.1,1019.4h36.1v575.8H631.5a22.21,22.21,0,0,1-22.2-22.2V1031A16.39,16.39,0,0,1,614.1,1019.4Z"/><path class="cls-37" d="M797.3,1116.3V793.6H772.1v13.1H634.5V793.6H609.3v322.8a24.58,24.58,0,0,0,24.6,24.6H772.8A24.65,24.65,0,0,0,797.3,1116.3Z"/><path class="cls-7" d="M772.1,1098.5V806.7H634.5v291.9a14.55,14.55,0,0,0,14.6,14.6H757.5A14.7,14.7,0,0,0,772.1,1098.5Z"/><rect class="cls-8" x="740.4" y="806.7" width="4.4" height="271.4"/><rect class="cls-8" x="708.6" y="806.7" width="4.4" height="271.4"/><rect class="cls-8" x="680.7" y="806.7" width="4.4" height="271.4"/><rect class="cls-8" x="656.1" y="806.7" width="4.4" height="271.4"/><path class="cls-38" d="M677.6,1492.6V1230.1c0-17.2,9.4-31.1,20.9-31.1h12.8c11.6,0,20.9,13.9,20.9,31.1v262.5c0,17.2-9.4,31.1-20.9,31.1H698.5C686.9,1523.6,677.6,1509.7,677.6,1492.6Z"/><path class="cls-26" d="M1073.6,527.1h367.7V414.6H1073.6a23.69,23.69,0,0,0-23.7,23.7v65.1A23.75,23.75,0,0,0,1073.6,527.1Z"/><path class="cls-39" d="M1050.1,435.1a23.67,23.67,0,0,1,23.5-20.6h367.7v20.6Z"/><path class="cls-40" d="M1050.1,506.5a23.67,23.67,0,0,0,23.5,20.6h367.7V506.5Z"/><path class="cls-7" d="M1435,527.1h252.7V414.6H1435a23.69,23.69,0,0,0-23.7,23.7v65.1A23.75,23.75,0,0,0,1435,527.1Z"/><rect class="cls-8" x="1427.6" y="440.5" width="249.7" height="2.4"/><rect class="cls-8" x="1427.6" y="455.8" width="249.7" height="2.4"/><rect class="cls-8" x="1427.6" y="470" width="249.7" height="2.4"/><rect class="cls-8" x="1427.6" y="485.2" width="249.7" height="2.4"/><rect class="cls-8" x="1427.6" y="498.6" width="249.7" height="2.4"/><path class="cls-28" d="M1435,414.6h276.7v14.8h-258a23.69,23.69,0,0,0-23.7,23.7v35.4a23.69,23.69,0,0,0,23.7,23.7h258V527H1435a23.69,23.69,0,0,1-23.7-23.7V438.2A23.66,23.66,0,0,1,1435,414.6Z"/><rect class="cls-41" x="1141.6" y="452.1" width="185.8" height="31.8"/><path class="cls-42" d="M1514.2,414.6H968.5a20.74,20.74,0,0,1-20.7-20.7V310.4a20.74,20.74,0,0,1,20.7-20.7h545.7a20.74,20.74,0,0,1,20.7,20.7v83.5A20.68,20.68,0,0,1,1514.2,414.6Z"/><path class="cls-43" d="M1534.9,393.9v-1.8H947.8v1.8a20.74,20.74,0,0,0,20.7,20.7h545.7A20.68,20.68,0,0,0,1534.9,393.9Z"/><rect class="cls-44" x="1039.8" y="289.7" width="38.1" height="124.9"/><rect class="cls-44" x="1102.7" y="289.7" width="38.1" height="124.9"/><rect class="cls-44" x="1326.6" y="289.7" width="38.1" height="124.9"/><rect class="cls-44" x="1389.5" y="289.7" width="38.1" height="124.9"/><polygon class="cls-32" points="1899.8 1505.2 1826.2 1120.3 1798.2 1125.6 1801 1140.1 1648.5 1169.3 1645.7 1154.8 1617.8 1160.1 1691.4 1545.1 1899.8 1505.2"/><rect class="cls-7" x="1679.55" y="1151.66" width="155.2" height="345.8" transform="translate(-217.49 353.56) rotate(-10.82)"/><rect class="cls-8" x="1809.86" y="1140.75" width="5" height="306.3" transform="translate(-210.75 363.39) rotate(-10.82)"/><rect class="cls-8" x="1778.85" y="1146.66" width="5" height="306.3" transform="translate(-212.41 357.67) rotate(-10.82)"/><rect class="cls-8" x="1750.26" y="1152.15" width="5" height="306.3" transform="translate(-213.95 352.4) rotate(-10.82)"/><rect class="cls-8" x="1719.25" y="1158.06" width="5" height="306.3" transform="translate(-215.61 346.68) rotate(-10.82)"/><rect class="cls-8" x="1692.06" y="1163.26" width="5" height="306.3" transform="translate(-217.07 341.66) rotate(-10.82)"/><path class="cls-45" d="M1697.7,1577.9l-12.2-63.6,208.4-39.9,12.2,63.6a19.69,19.69,0,0,1-15.6,23l-169.7,32.5A19.59,19.59,0,0,1,1697.7,1577.9Z"/><rect class="cls-46" x="1750.63" y="1544.18" width="107" height="33.2" transform="translate(-261.02 366.59) rotate(-10.82)"/><rect class="cls-7" x="1017.6" y="1231.8" width="579.4" height="144"/><rect class="cls-8" x="1017.6" y="1245.9" width="579.4" height="4.6"/><rect class="cls-8" x="1017.6" y="1275.1" width="579.4" height="4.6"/><rect class="cls-8" x="1017.6" y="1302.2" width="579.4" height="4.6"/><rect class="cls-8" x="1017.6" y="1331.4" width="579.4" height="4.6"/><rect class="cls-8" x="1017.6" y="1357.1" width="579.4" height="4.6"/><polygon class="cls-47" points="1614.1 1231.8 1614.1 1205.4 1003.9 1205.4 1003.9 1231.8 1026.9 1231.8 1614.1 1231.8"/><polygon class="cls-47" points="1026.9 1375.8 1003.9 1375.8 1003.9 1402.2 1614.1 1402.2 1614.1 1375.8 1026.9 1375.8"/></g></svg>