<svg id="Layer_1" data-name="Layer 1" xmlns="http://www.w3.org/2000/svg" viewBox="0 0 25 25"><defs><style>.cls-1{fill:#070707;}.cls-1,.cls-2,.cls-3{opacity:0.9;}.cls-2{fill:#3454d1;}.cls-3{fill:#06d6a0;}</style></defs><title>Artboard 3</title><path class="cls-1" d="M7.82,3.29h5.07a1,1,0,0,1,1,1v12a1,1,0,0,1-1,1H6.32a1,1,0,0,1-1-1V5.79a2.5,2.5,0,0,1,2.5-2.5Z" transform="translate(-0.86 0.88) rotate(-5)"/><path class="cls-2" d="M13.11,19.45,6.77,17.74a1,1,0,0,1-.71-1.22L8.78,6.34a2.5,2.5,0,0,1,3.06-1.77l4.9,1.32a1,1,0,0,1,.7,1.22l-3.1,11.63A1,1,0,0,1,13.11,19.45Z"/><path class="cls-3" d="M12.27,21.79l-5.8-4.07A.49.49,0,0,1,6.35,17l6.32-9a2.49,2.49,0,0,1,3.48-.62L20.3,10.3a1,1,0,0,1,.25,1.39l-6.89,9.85A1,1,0,0,1,12.27,21.79Z"/></svg>