<svg id="Layer_1" data-name="Layer 1" xmlns="http://www.w3.org/2000/svg" viewBox="0 0 102.27 25.14"><defs><style>.cls-1{font-size:15.11px;fill:#1a1a1a;font-family:CoolveticaRg-Regular, Coolvetica;letter-spacing:0em;}.cls-2{letter-spacing:-0.03em;}.cls-3{letter-spacing:0.01em;}.cls-4{letter-spacing:0em;}.cls-5{fill:#070707;}.cls-5,.cls-6,.cls-7{opacity:0.9;}.cls-6{fill:#3454d1;}.cls-7{fill:#06d6a0;}</style></defs><title>Artboard 2</title><text class="cls-1" transform="translate(23.61 17.3) scale(1.07 1)">Ca<tspan class="cls-2" x="16.54" y="0">r</tspan><tspan class="cls-3" x="20.91" y="0">d</tspan><tspan class="cls-4" x="28.96" y="0">Collab</tspan></text><path class="cls-5" d="M7.75,3.36h5.07a1,1,0,0,1,1,1v12a1,1,0,0,1-1,1H6.25a1,1,0,0,1-1-1V5.86a2.5,2.5,0,0,1,2.5-2.5Z" transform="translate(-0.87 0.87) rotate(-5)"/><path class="cls-6" d="M13.05,19.52,6.7,17.81A1,1,0,0,1,6,16.59L8.71,6.41a2.51,2.51,0,0,1,3.07-1.77L16.67,6a1,1,0,0,1,.71,1.22L14.27,18.81A1,1,0,0,1,13.05,19.52Z"/><path class="cls-7" d="M12.21,21.86l-5.8-4.07a.49.49,0,0,1-.12-.68l6.31-9a2.5,2.5,0,0,1,3.49-.61l4.15,2.91a1,1,0,0,1,.25,1.39L13.6,21.61A1,1,0,0,1,12.21,21.86Z"/></svg>