<svg id="Layer_1" data-name="Layer 1" xmlns="http://www.w3.org/2000/svg" viewBox="0 0 102.27 25.14"><defs><style>.cls-1{fill:#1a1a1a;}.cls-2{fill:#070707;}.cls-2,.cls-3,.cls-4{opacity:0.9;}.cls-3{fill:#3454d1;}.cls-4{fill:#06d6a0;}</style></defs><title>Artboard 2</title><path class="cls-1" d="M33.44,13.86a5.38,5.38,0,0,1-.56,1.55,4.2,4.2,0,0,1-2.35,2,5.2,5.2,0,0,1-1.71.27,5.78,5.78,0,0,1-2-.33,4.22,4.22,0,0,1-1.57-1,4.82,4.82,0,0,1-1.05-1.64,6.31,6.31,0,0,1-.38-2.27,7.1,7.1,0,0,1,.35-2.29,4.79,4.79,0,0,1,1-1.72,4.24,4.24,0,0,1,1.57-1.08,6,6,0,0,1,3.9-.1A4.56,4.56,0,0,1,32.08,8a3.86,3.86,0,0,1,1.36,2.57H31.19a2.34,2.34,0,0,0-.87-1.33,2.61,2.61,0,0,0-3.52.47,4.45,4.45,0,0,0-.67,2.59,4.44,4.44,0,0,0,.66,2.6,2.24,2.24,0,0,0,2,.93,2.46,2.46,0,0,0,1.61-.5,2.61,2.61,0,0,0,.83-1.46Z"/><path class="cls-1" d="M38.89,17.3a3,3,0,0,1-.13-.66,2.76,2.76,0,0,1-1,.63,4.16,4.16,0,0,1-1.43.23,3,3,0,0,1-2-.57,1.85,1.85,0,0,1-.64-1.47A2.5,2.5,0,0,1,34,14.18a2,2,0,0,1,.76-.75,3.88,3.88,0,0,1,1.15-.4c.45-.08.94-.16,1.46-.23a2.86,2.86,0,0,0,1.07-.28A.62.62,0,0,0,38.7,12a.61.61,0,0,0-.37-.56,2,2,0,0,0-1-.21,1.48,1.48,0,0,0-1,.31,1.32,1.32,0,0,0-.39.8H34a3.22,3.22,0,0,1,.2-1.06,2,2,0,0,1,.6-.83,2.91,2.91,0,0,1,1.07-.54,6.32,6.32,0,0,1,1.62-.19,5.55,5.55,0,0,1,1.59.2,2.62,2.62,0,0,1,1.06.57,2.12,2.12,0,0,1,.57.92,4,4,0,0,1,.18,1.24v4.7Zm-.14-3.64a1.22,1.22,0,0,1-.47.24c-.21.06-.5.13-.89.2a3.17,3.17,0,0,0-1.25.42.89.89,0,0,0-.34.74c0,.56.34.83,1,.83a2.27,2.27,0,0,0,.75-.12,2.2,2.2,0,0,0,.6-.35,1.89,1.89,0,0,0,.41-.52,1.32,1.32,0,0,0,.15-.62Z"/><path class="cls-1" d="M41.74,17.3V9.87h2v.89a2.4,2.4,0,0,1,.54-.59,2.22,2.22,0,0,1,.58-.32,2.18,2.18,0,0,1,.61-.15q.3,0,.63,0h.27v2a3.69,3.69,0,0,0-.58,0c-1.28,0-1.92.6-1.92,1.79V17.3Z"/><path class="cls-1" d="M51.92,17.3v-.9a2.5,2.5,0,0,1-2.22,1.1,3.48,3.48,0,0,1-1.39-.27,3,3,0,0,1-1.08-.79,3.71,3.71,0,0,1-.71-1.25,4.9,4.9,0,0,1-.26-1.68A5.09,5.09,0,0,1,46.47,12a3.4,3.4,0,0,1,.63-1.21,2.87,2.87,0,0,1,1-.8,3.37,3.37,0,0,1,1.38-.28,2.82,2.82,0,0,1,2.36,1.17V7.15h2.07V17.3Zm-1.74-1.4a1.6,1.6,0,0,0,1.26-.59A2.27,2.27,0,0,0,52,13.77c0-1.61-.58-2.42-1.76-2.42s-1.81.77-1.81,2.3a2.55,2.55,0,0,0,.5,1.62A1.6,1.6,0,0,0,50.18,15.9Z"/><path class="cls-1" d="M64.43,13.86a5.1,5.1,0,0,1-.56,1.55,4.41,4.41,0,0,1-1,1.2,4.27,4.27,0,0,1-1.37.77,5.11,5.11,0,0,1-1.71.27,5.72,5.72,0,0,1-2-.33,4.26,4.26,0,0,1-1.58-1,4.65,4.65,0,0,1-1-1.64,6.1,6.1,0,0,1-.38-2.27,6.84,6.84,0,0,1,.35-2.29,4.77,4.77,0,0,1,1-1.72,4.28,4.28,0,0,1,1.58-1.08,5.93,5.93,0,0,1,3.89-.1A4.45,4.45,0,0,1,63.07,8,4,4,0,0,1,64,9.14a4,4,0,0,1,.42,1.42H62.19a2.34,2.34,0,0,0-.87-1.33,2.41,2.41,0,0,0-1.46-.48,2.35,2.35,0,0,0-2.07.95,4.45,4.45,0,0,0-.66,2.59,4.52,4.52,0,0,0,.65,2.6,2.25,2.25,0,0,0,2,.93,2.43,2.43,0,0,0,1.6-.5,2.62,2.62,0,0,0,.84-1.46Z"/><path class="cls-1" d="M68.82,17.5a5,5,0,0,1-1.74-.29,3.71,3.71,0,0,1-1.28-.8,3.28,3.28,0,0,1-.8-1.24,4.48,4.48,0,0,1-.28-1.58A4.39,4.39,0,0,1,65,12a3.47,3.47,0,0,1,.81-1.23,3.7,3.7,0,0,1,1.29-.8,5,5,0,0,1,1.71-.28A4.93,4.93,0,0,1,70.5,10a3.74,3.74,0,0,1,1.27.79,3.32,3.32,0,0,1,.8,1.23,4.37,4.37,0,0,1,.29,1.62,4.26,4.26,0,0,1-.29,1.6,3.44,3.44,0,0,1-.8,1.24,3.69,3.69,0,0,1-1.28.79A4.68,4.68,0,0,1,68.82,17.5Zm0-1.65c1.28,0,1.92-.75,1.92-2.26s-.64-2.25-1.92-2.25-1.93.75-1.93,2.25S67.53,15.85,68.82,15.85Z"/><path class="cls-1" d="M73.58,17.3V7.15h2.11V17.3Z"/><path class="cls-1" d="M76.54,17.3V7.15h2.11V17.3Z"/><path class="cls-1" d="M84.48,17.3a3,3,0,0,1-.13-.66,2.68,2.68,0,0,1-1,.63,4.16,4.16,0,0,1-1.43.23,3,3,0,0,1-2-.57,1.85,1.85,0,0,1-.64-1.47,2.5,2.5,0,0,1,.28-1.28,2,2,0,0,1,.76-.75,4,4,0,0,1,1.15-.4c.45-.08.94-.16,1.47-.23A2.85,2.85,0,0,0,84,12.52a.6.6,0,0,0,.28-.57.61.61,0,0,0-.37-.56,1.91,1.91,0,0,0-1-.21,1.5,1.5,0,0,0-1,.31,1.32,1.32,0,0,0-.39.8h-2a3.22,3.22,0,0,1,.2-1.06,2.13,2.13,0,0,1,.6-.83,3,3,0,0,1,1.08-.54A6.18,6.18,0,0,1,83,9.67a5.67,5.67,0,0,1,1.6.2,2.64,2.64,0,0,1,1,.57,2.12,2.12,0,0,1,.57.92,4,4,0,0,1,.18,1.24v4.7Zm-.14-3.64a1.22,1.22,0,0,1-.47.24c-.21.06-.5.13-.89.2a3.23,3.23,0,0,0-1.25.42.89.89,0,0,0-.34.74c0,.56.34.83,1,.83a2.27,2.27,0,0,0,.75-.12,1.94,1.94,0,0,0,.6-.35,1.89,1.89,0,0,0,.41-.52,1.32,1.32,0,0,0,.15-.62Z"/><path class="cls-1" d="M87.33,17.3V7.15H89.4v3.69a2.82,2.82,0,0,1,2.36-1.17,3.37,3.37,0,0,1,1.38.28,2.87,2.87,0,0,1,1,.8A3.4,3.4,0,0,1,94.8,12,5.09,5.09,0,0,1,95,13.51a4.9,4.9,0,0,1-.26,1.68,3.71,3.71,0,0,1-.71,1.25,3,3,0,0,1-1.09.79,3.47,3.47,0,0,1-1.38.27,2.5,2.5,0,0,1-2.22-1.1v.9Zm3.76-1.4a1.6,1.6,0,0,0,1.3-.63,2.55,2.55,0,0,0,.5-1.62c0-1.53-.6-2.3-1.81-2.3s-1.76.81-1.76,2.42a2.27,2.27,0,0,0,.51,1.54A1.61,1.61,0,0,0,91.09,15.9Z"/><path class="cls-2" d="M7.75,3.36h5.07a1,1,0,0,1,1,1v12a1,1,0,0,1-1,1H6.25a1,1,0,0,1-1-1V5.86a2.5,2.5,0,0,1,2.5-2.5Z" transform="translate(-0.87 0.87) rotate(-5)"/><path class="cls-3" d="M13.05,19.52,6.7,17.81A1,1,0,0,1,6,16.59L8.71,6.41a2.51,2.51,0,0,1,3.07-1.77L16.67,6a1,1,0,0,1,.71,1.22L14.27,18.81A1,1,0,0,1,13.05,19.52Z"/><path class="cls-4" d="M12.21,21.86l-5.8-4.07a.49.49,0,0,1-.12-.68l6.31-9a2.5,2.5,0,0,1,3.49-.61l4.15,2.91a1,1,0,0,1,.25,1.39L13.6,21.61A1,1,0,0,1,12.21,21.86Z"/></svg>